<?xml version="1.0" encoding="UTF-8"?>
<svg id="Calque_2" data-name="Calque 2" xmlns="http://www.w3.org/2000/svg" xmlns:xlink="http://www.w3.org/1999/xlink" viewBox="0 0 370.17 130.94">
  <defs>
    <style>
      .cls-1 {
        fill: #7aba45;
      }

      .cls-1, .cls-2, .cls-3, .cls-4, .cls-5, .cls-6 {
        fill-rule: evenodd;
      }

      .cls-7 {
        fill: url(#Dégradé_sans_nom_13-4);
      }

      .cls-8 {
        fill: url(#Dégradé_sans_nom_13-3);
      }

      .cls-2 {
        fill: #4b55a1;
      }

      .cls-3 {
        fill: #0e5a8b;
      }

      .cls-9 {
        fill: url(#Dégradé_sans_nom_13-2);
      }

      .cls-10 {
        fill: url(#Dégradé_sans_nom_13-5);
      }

      .cls-4 {
        fill: #033e4d;
      }

      .cls-5 {
        fill: #b6d592;
      }

      .cls-6 {
        fill: #1183c4;
      }

      .cls-11 {
        fill: url(#Dégradé_sans_nom_13);
      }
    </style>
    <linearGradient id="Dégradé_sans_nom_13" data-name="Dégradé sans nom 13" x1="132.58" y1="65.23" x2="132.58" y2="91.63" gradientUnits="userSpaceOnUse">
      <stop offset="0" stop-color="#033e4d"/>
      <stop offset=".66" stop-color="#0e5a8b"/>
      <stop offset="1" stop-color="#1183c4"/>
    </linearGradient>
    <linearGradient id="Dégradé_sans_nom_13-2" data-name="Dégradé sans nom 13" x1="232.51" y1="65.23" x2="232.51" y2="91.63" xlink:href="#Dégradé_sans_nom_13"/>
    <linearGradient id="Dégradé_sans_nom_13-3" data-name="Dégradé sans nom 13" x1="185.5" y1="65.23" x2="185.5" y2="91.63" xlink:href="#Dégradé_sans_nom_13"/>
    <linearGradient id="Dégradé_sans_nom_13-4" data-name="Dégradé sans nom 13" x1="286.1" y1="65.23" x2="286.1" y2="91.63" xlink:href="#Dégradé_sans_nom_13"/>
    <linearGradient id="Dégradé_sans_nom_13-5" data-name="Dégradé sans nom 13" x1="347.15" y1="65.23" x2="347.15" y2="91.63" xlink:href="#Dégradé_sans_nom_13"/>
  </defs>
  <g id="Calque_1-2" data-name="Calque 1">
    <g>
      <path class="cls-1" d="M119.42,121.03c2.42,1.4,5.26,2.93,8.28,4.28-3.07-.98-5.31-2.89-8.33-4.05,0-.09,.05-.19,.05-.23Z"/>
      <path class="cls-1" d="M129.01,115.45s.05,.05,.05,.09c-.93-.88-1.77-1.82-2.56-2.7,.88,.88,1.72,1.77,2.51,2.61Z"/>
      <path class="cls-6" d="M366.87,62.82l-10.03,6.33c1.19,.79,.4,0,1.06,1.45,.53,1.06,.53,.66,.79,1.72-1.98,0-1.58,.4-1.32-.92l-.92,.66c-3.83,.66-9.37-.13-11.08,.53l-.66,.4-4.35-6.2,.26,4.35-13.06,.53c-4.35,.66-1.19,0-3.43,.79l.13,10.03c-1.58,.4-3.69,1.72-5.14,2.51-5.41,2.51-9.76,4.22-15.57,6.33-7.12,2.37-15.04,4.49-22.43,6.2-16.49,3.83-32.58,6.07-50,8.05-17.68,2.11-37.2,2.77-55.41,2.9-7.26,0-47.62-.92-55.14-2.64,.26,.92,2.64,3.3,3.56,4.35,3.43,.79,9.63,.92,13.32,1.19,57.91,4.35,135.48,1.32,190.1-17.68,1.32-.53,4.22-1.85,5.41-2.11,1.58-.26,5.54,0,7.52,0v-3.3l8.71-4.22c.79,.66,3.3,6.07,4.09,7.52h16.89c-2.77-5.14-6.73-11.21-9.23-16.23,3.43-3.17,6.99-8.71,7.26-13.98-.66,.53-.92,.53-1.32,1.45h0Z"/>
      <path class="cls-6" d="M114.77,11.23c.66,1.58,1.85,2.37,2.77,4.62,3.96,0,9.37-.79,13.59-1.06,4.88-.4,9.63-.53,14.38-.79,46.04-3.3,117.67,1.85,160.94,17.41,5.8,2.11,16.36,6.33,20.45,9.63,5.28,.13,10.42,0,15.57,0,2.37,0,5.28-.13,7.65,.13,2.37,.4,4.75,.92,6.73,1.06-1.45-1.58-7.92-5.28-10.69-6.73-3.69-1.98-7.78-3.83-11.87-5.54-25.86-10.29-58.05-15.83-86.01-18.86-44.46-4.62-88.91-3.83-133.5,.13h0Z"/>
      <path class="cls-4" d="M340.49,49.49c3.03,0,5.8-.26,7.92,.66,1.06,.53,1.85,1.19,2.37,1.85,2.37,3.03,1.85,8.18-1.85,10.29-1.85,1.19-5.54,1.32-8.44,1.32v-14.12Zm-16.36,17.55l.4-2.51c.4,1.32,.4,.26,.4,2.51,.4-1.58-.4-.79,1.19-.92,.4-.13,1.98,0,2.64-.13l29.68-1.06c1.58-.26,2.9-.53,3.43,1.06l.66-.4c2.11-.92,.79-.26,2.77-1.72l1.58-1.06c.4-.92,.66-.92,1.32-1.45,.26-1.19,.66-1.71,.92-2.9,.66-3.83,.13-6.73-1.98-10.03-2.37-3.69-6.33-4.75-10.29-6.2-1.98-.13-4.35-.66-6.73-1.06-2.37-.26-5.28-.13-7.65-.13-5.14,0-10.29,.13-15.57,0h-2.77v25.99Z"/>
      <path class="cls-6" d="M21.5,84.45l.66-3.56c-5.01-3.3-8.05-5.41-11.61-9.63-10.69-13.46,1.98-25.59,13.32-31.4,1.06-.66,5.94-3.17,6.6-3.69l.79-4.49c-9.37,3.3-24.8,12.8-28.76,22.69-4.49,11.08,3.83,19.66,11.08,25.2,1.19,.92,6.46,4.49,7.92,4.88h0Z"/>
      <path class="cls-3" d="M324.13,67.04v5.41c2.24-.79-.92-.13,3.43-.79l13.06-.53-.26-4.35,4.35,6.2,.66-.4c1.71-.66,7.26,.13,11.08-.53l.92-.66c-.26,1.32-.66,.92,1.32,.92-.26-1.06-.26-.66-.79-1.72-.66-1.45,.13-.66-1.06-1.45l10.03-6.33-1.58,1.06c-1.98,1.45-.66,.79-2.77,1.72l-.66,.4c-.53-1.58-1.85-1.32-3.43-1.06l-29.68,1.06c-.66,.13-2.24,0-2.64,.13-1.58,.13-.79-.66-1.19,.92,0-2.24,0-1.19-.4-2.51l-.4,2.51Z"/>
      <path class="cls-6" d="M45.12,94.74c4.22,1.06,8.44,2.64,12.8,3.83,8.57,2.37,18.34,4.62,27.18,6.2,4.35,.79,10.03,1.98,14.38,2.24-1.19-1.32-3.69-3.56-5.54-4.49-8.18-.66-28.1-5.41-36.81-7.65-3.56-.92-8.31-2.9-11.48-3.43l-.53,3.3Z"/>
      <path class="cls-11" d="M151.71,69.41c-.13-1.32,0-.53-.4-.66,0-1.06-1.45-4.62-1.85-5.8-.53-1.06-1.71-4.75-2.37-5.67-.13-.79,.26-.13-.13-.92-.53-.66,0,0-.53-.4,.13-2.11-4.35-11.35-5.01-14.91h-16.75l-9.76,22.95v.13l-.26,.53-.26,.4c-.13,.13-.26,.53-.26,.53v.66l-2.51,5.28c-.53,1.58-1.85,4.22-1.98,5.67-.53-.13-.4-.26-.4,.4-.53,.53-.66,1.45-.92,2.11-.4,.92-.66,1.45-.92,2.24-.66,1.32-1.85,3.43-1.98,4.75,.79,1.19,2.77,4.09,3.83,4.88h10.29c.66-2.51,1.98-5.28,2.51-7.78h19.39c.4,1.19,.66,2.37,1.06,3.69,.4,1.32,.92,2.64,1.06,4.09h16.23c-.13-1.19-7.52-21.24-8.05-22.16Zm-26.25,6.07l-.13-.92,.66-1.85c.53-1.06,.66-1.85,1.06-2.9,.4-1.06,.79-2.11,1.06-3.03,.66-1.45,1.85-4.88,1.98-6.33,.53-.66,.4-.13,.26-1.19,.15-.12,.2-.15,.23-.17-.04,.01-.06-.02,.16-.36,.26-.4,.13-.26,.4-.66l1.45-4.09,2.11,6.07c-.13,.92,2.11,8.57,2.9,10.29,.26,.53,0,.26,.26,.66v.92c.26,.4,.79,2.77,1.19,3.56h-13.59Z"/>
      <path class="cls-9" d="M246.96,66.91c-5.14-4.09-15.17-8.18-16.89-11.48-1.71-3.03,4.88-8.18,15.57-1.72,1.32,.79,1.45,1.58,3.03,1.85-.79-1.85-.4-10.16-.4-12.93-1.85-1.06-6.2-2.24-8.97-2.51-8.71-.92-21.11,.13-25.46,8.57-1.32,2.37-1.19,6.86,.13,9.76,2.9,5.94,10.16,9.76,15.7,13.19l3.96,2.24,.92,.92,.26,.26,.4,.4,.26,.26,.26,.66c.92,4.09-1.19,3.56-3.43,5.28-1.58-.13-3.56,.4-5.8,.13-3.03-.13-6.6-1.45-9.1-3.03l-4.09-2.37v12.27c4.49,2.37,9.89,4.22,16.62,4.22,5.67-.13,13.59-2.11,16.36-4.88l.4-.26,.4-.4c.26-.13,.4-.26,.66-.53l.26-.4c1.32-1.06,3.17-2.77,3.3-4.88l.26-.66v-.26c1.72-4.22-.92-10.82-4.62-13.72Z"/>
      <path class="cls-2" d="M119.52,39.47l8.05-5.54c1.71-1.32,1.98-1.06,2.9-3.83,.66-2.11,.26-4.35-.79-5.67-2.77-3.17-6.99,.79-7.92,3.43l-2.24,11.61Z"/>
      <path class="cls-6" d="M58.84,20.47c-.26,.66-1.06,5.01-1.19,6.07,3.03-.4,8.84-2.24,12.27-3.03,1.98-.53,4.22-.92,6.33-1.32,1.45-.4,4.88-.92,6.07-1.32-2.37-1.06-13.32-1.85-16.75-1.98l-6.73,1.58Z"/>
      <path class="cls-8" d="M204.61,74.03c-.26-1.45-1.45-3.43-2.24-4.49,0-.13-.13-.13-.13-.26-.13,0-.13-.13-.26-.13-1.58-2.24-2.64-2.77-4.88-4.35-4.35-2.9-15.96-7.92-14.12-11.48,1.98-3.56,9.1-2.9,13.32-.92,2.51,1.19,3.83,2.77,5.54,3.17-.92-1.98-.4-10.03-.4-12.93-4.75-2.51-12.8-3.43-19.92-2.51-5.94,.79-12.53,4.22-14.78,8.71-1.19,2.51-.92,6.86,.4,9.76,2.51,5.01,7.92,8.31,12.4,11.08,1.19,.79,2.24,1.32,3.69,2.11,1.45,.92,2.37,1.58,3.69,2.37l.4,.26c.79,1.58,1.85,1.58,1.85,4.09v.13l-.26,.53c-3.83,3.03-6.2,3.56-12,2.24-6.2-1.45-9.1-4.75-10.55-5.01l.13,12.27c3.3,1.71,5.94,2.9,10.42,3.56,7.78,1.32,16.49,.4,22.82-4.35,2.24-1.71,5.28-5.14,5.28-9.1,0-1.85,.13-3.3-.4-4.75Z"/>
      <path class="cls-7" d="M310.01,74.82V41.05h-16.36v35.22c-.26,.66-.26,1.19-.66,1.85-.4,1.19-.4,.26-.53,1.58-.53-.13-.4-.26-.4,.26-1.45,.66-2.37,1.71-4.62,1.85-.79,.13-2.24,.13-3.17,0-.92-.13-1.45-.66-2.51-.92-.66-.53-1.19-1.19-1.98-1.58-.26-1.06-.66-1.58-.92-2.64-.13-.53-.26-2.51-.26-3.3V41.05h-16.49v32.06c0,2.64,.13,4.75,.26,6.99v.13c0,.53-.13,.4,.53,.4-.26,4.09,5.01,7.92,8.05,9.5,8.31,3.96,27.57,4.35,35.62-3.56,1.32-1.32,3.17-3.69,3.17-5.94,.53-.79,.26-4.75,.26-5.8Z"/>
      <path class="cls-1" d="M138.52,129.3l4.88,.79-.92-1.45c-.4-.53-.4-1.06-.53-1.85-1.06-.53-1.58-1.19-2.77-1.72,.26,1.58-.26,2.9-.66,4.22h0Z"/>
      <path class="cls-5" d="M6.73,23.5c-2.37,0-4.22,1.06-5.94,1.19q.13-.79,1.06-1.45l1.98-1.85s.13,0,.26-.13l1.19-.92c.13-.13,.26-.26,.26-.26,.53-.4,.26-.26,.66-.66L.53,24.16c-.53,.53-.4,.53-.53,1.19l4.88-1.19c.13-.13,.66-.13,.66-.26l1.19-.4Z"/>
      <path class="cls-10" d="M370.17,91.57l-13.32-22.43c14.03-4.86,12.44-15.12,12.44-15.12,0-12.75-20.29-13.01-20.29-13.01l-24.86,.03v50.53h16.36l-.13-24.8,12.93,24.8h16.89Zm-29.68-27.97v-14.12s11.65-2.35,11.65,6.65-11.65,7.46-11.65,7.46Z"/>
      <path class="cls-1" d="M147.3,130.94c-6.42-.33-13.45-2.75-19.59-5.63-3.03-1.35-5.86-2.89-8.28-4.28-2.14-1.21-3.96-2.33-5.4-3.26-.51-.33-.93-.61-1.3-.84-.28-.23-.51-.37-.74-.51-.88-.61-1.4-.98-1.4-.98-1.3-.93-2.51-1.86-3.21-2.37-1.44-1.07-2.61-1.95-4.1-3.03-1.3-1.07-2.37-2.09-3.82-3.03-1.16-1.35-3.68-3.58-5.54-4.51-.79-1.58-10.66-9.87-12.01-11.08-1.95-1.82-3.82-3.68-5.82-5.4-7.63-5.96-7.12-6.33-16.06-12.38-1.21-.79-2.14-1.49-3.58-2.28-3.54-1.82-7.91-4.19-12.52-4.75-2.37-.23-3.72-1.02-4.89-.09,.37,1.02,6.05,8.94,7.26,10.52,2.51,3.3,.65,5.54-.14,10.56-.28,1.3-.37,2.65-.51,3.82l-.56,3.3c-1.16,2,.14,4.23-2.09,5.96-5.68-.93-20.34,.37-24.15-.28-.37-1.58,2.37-12.8,2.65-15.96l.65-3.58,4.1-22.01c.65-3.3,1.86-7.91,2.23-11.08,.28-2.65,1.86-9.77,2-11.59l.79-4.51c1.72-1.16,3.54-1.95,5.4-3.16,1.86-1.16,3.3-1.95,5.12-3.16,1.49-.93,10.05-5.03,10.56-6.19-1.72-1.07-24.9,1.3-29.27,1.86-5.03,.65-12.29,2.09-16.38,2.47-2.37,0-4.19,1.07-5.91,1.21q.14-.79,1.07-1.44l1.95-1.86s.14,0,.28-.14l1.16-.93c.14-.09,.28-.23,.28-.23,.51-.42,.28-.28,.65-.65,2.79-2.37,13.08-7.54,17.17-8.98C39.33,4.5,56.74,.4,73.86,.03c33.51-.65,37.6,10.01,40.91,11.22,.65,1.58,1.86,2.37,2.79,4.61,3.02,10.42-3.86,17.41-8.75,21.92-3.96,3.68-16.06,11.45-20.29,11.87l1.07-1.21c.37-.37,.79-.51,1.16-.93l5.68-5.12c5.96-6.89,6.98-13.59-2.65-18.1-2.75-1.3-7.77-3.26-11.45-3.4-2.37-1.07-13.36-1.86-16.75-2-2.14-.14-5.03-.37-6.47,.28l-.28,1.3c-.28,.65-1.07,5.03-1.16,6.1-.28,3.16-3.58,15.68-2.93,17.55,.79,.88,3.16,1.02,4.51,1.58,1.44,.51,2.75,1.16,4.1,1.68,10.8,4.79,24.53,17.54,31.65,26.67l10.42,12.66c.79,1.21,2.75,4.1,3.82,4.89,.79,1.44,1.72,2.51,2.65,3.68,1.02,1.21,1.72,2.14,2.75,3.72,1.35,1.58,4.51,5.82,5.96,6.84,.23,.93,2.61,3.3,3.54,4.37,.51,.65,1.12,1.3,1.72,1.95,.19,.23,.42,.47,.65,.7,.79,.88,1.63,1.82,2.56,2.7,.19,.23,.37,.42,.6,.65,.61,.65,1.16,1.21,1.86,1.91,.79,.98,1.07,1.16,1.58,1.3,.14,.19,.28,.33,.47,.47,6.79,6.14,13.73,11.08,13.73,11.08Z"/>
      <path class="cls-1" d="M133.11,119.4c-.51-.14-.79-.33-1.58-1.3-.7-.7-1.26-1.26-1.86-1.91,1.12,1.07,2.28,2.19,3.44,3.21Z"/>
    </g>
  </g>
</svg>